<svg viewBox="0 0 200 200" xmlns="http://www.w3.org/2000/svg">
  <path fill="#FF0066" d="M42.7,-71.4C56.5,-66,69.5,-56.8,76.4,-44.3C83.2,-31.8,83.9,-15.9,83.5,-0.2C83.1,15.4,81.6,30.8,75.6,44.8C69.5,58.8,59,71.3,45.6,76.3C32.3,81.2,16.1,78.7,0.4,78C-15.3,77.3,-30.6,78.4,-43.6,73.3C-56.7,68.1,-67.4,56.6,-75.4,43.3C-83.4,30.1,-88.8,15,-88.1,0.4C-87.5,-14.3,-80.9,-28.6,-71.6,-39.5C-62.2,-50.5,-50,-58,-37.6,-64.2C-25.2,-70.4,-12.6,-75.3,0.9,-76.9C14.5,-78.5,28.9,-76.8,42.7,-71.4Z" transform="translate(100 100)" />
</svg>
